# xmcd
#
# Track frame offsets:
#  150
#  12712
#  24472
#  41547
#  75925
#  97577
#  129427
#  165062
#  200810
#  215385
#  247595
#  262647
#  300997
#
# Disc length: 4795 seconds
#
# Revision: 0
# Processed by: cddbd v1.5.1PL2 Copyright (c) Steve Scherf et al.
# Submitted via: Collectorz.com_Music_Collector 6.9
#
DISCID=8612b90d
DTITLE=Groundhogs - High On The Hog [CD2]
DYEAR=1900
DGENRE=
TTITLE0=Me and The Devil
TTITLE1=Can't Be Satisfied
TTITLE2=Diving Duck
TTITLE3=No More Doggin'
TTITLE4=Eccentric Man
TTITLE5=3744 James Road
TTITLE6=Split (Part 1)
TTITLE7=Split (Part 2)
TTITLE8=Thank Christ For The Bomb
TTITLE9=Mistreated
TTITLE10=Superceded
TTITLE11=Groundhog Blues
TTITLE12=Cherry Red
EXTD=
EXTT0=
EXTT1=
EXTT2=
EXTT3=
EXTT4=
EXTT5=
EXTT6=
EXTT7=
EXTT8=
EXTT9=
EXTT10=
EXTT11=
EXTT12=
PLAYORDER=
